<?xml version="1.0" encoding="UTF-8"?>
<svg id="Calque_2" data-name="Calque 2" xmlns="http://www.w3.org/2000/svg" xmlns:xlink="http://www.w3.org/1999/xlink" viewBox="0 0 2483.01 296.85">
  <defs>
    <style>
      .cls-1, .cls-2 {
        fill: none;
      }

      .cls-3 {
        fill: url(#Dégradé_sans_nom_81);
      }

      .cls-4 {
        fill: url(#Dégradé_sans_nom_81-18);
      }

      .cls-5 {
        fill: url(#Dégradé_sans_nom_81-11);
      }

      .cls-6 {
        fill: url(#Dégradé_sans_nom_81-13);
      }

      .cls-7 {
        fill: url(#Dégradé_sans_nom_81-10);
      }

      .cls-8 {
        fill: url(#Dégradé_sans_nom_81-17);
      }

      .cls-9 {
        fill: url(#Dégradé_sans_nom_81-16);
      }

      .cls-10 {
        fill: url(#Dégradé_sans_nom_81-15);
      }

      .cls-11 {
        fill: url(#Dégradé_sans_nom_81-12);
      }

      .cls-12 {
        fill: url(#Dégradé_sans_nom_81-19);
      }

      .cls-13 {
        fill: url(#Dégradé_sans_nom_81-14);
      }

      .cls-14 {
        fill: url(#Dégradé_sans_nom_81-20);
      }

      .cls-2 {
        stroke: url(#Dégradé_sans_nom_141);
        stroke-miterlimit: 10;
      }

      .cls-15 {
        fill: url(#Dégradé_sans_nom_81-3);
      }

      .cls-16 {
        fill: url(#Dégradé_sans_nom_81-4);
      }

      .cls-17 {
        fill: url(#Dégradé_sans_nom_81-2);
      }

      .cls-18 {
        fill: url(#Dégradé_sans_nom_81-7);
      }

      .cls-19 {
        fill: url(#Dégradé_sans_nom_81-8);
      }

      .cls-20 {
        fill: url(#Dégradé_sans_nom_81-5);
      }

      .cls-21 {
        fill: url(#Dégradé_sans_nom_81-6);
      }

      .cls-22 {
        fill: url(#Dégradé_sans_nom_81-9);
      }
    </style>
    <linearGradient id="Dégradé_sans_nom_81" data-name="Dégradé sans nom 81" x1="0" y1="118.62" x2="237.24" y2="118.62" gradientUnits="userSpaceOnUse">
      <stop offset="0" stop-color="#532a7a"/>
      <stop offset="1" stop-color="#9673ac"/>
    </linearGradient>
    <linearGradient id="Dégradé_sans_nom_141" data-name="Dégradé sans nom 141" x1="93.07" y1="27.92" x2="206.67" y2="224.69" gradientUnits="userSpaceOnUse">
      <stop offset="0" stop-color="#fff"/>
      <stop offset=".1" stop-color="#e3dce9"/>
      <stop offset=".27" stop-color="#b7a6c7"/>
      <stop offset=".44" stop-color="#9379ab"/>
      <stop offset=".6" stop-color="#775796"/>
      <stop offset=".75" stop-color="#633e86"/>
      <stop offset=".89" stop-color="#572f7d"/>
      <stop offset="1" stop-color="#532a7a"/>
    </linearGradient>
    <linearGradient id="Dégradé_sans_nom_81-2" data-name="Dégradé sans nom 81" x1="351.76" y1="128.32" x2="2483.01" y2="128.32" xlink:href="#Dégradé_sans_nom_81"/>
    <linearGradient id="Dégradé_sans_nom_81-3" data-name="Dégradé sans nom 81" x1="1844.59" y1="276.62" x2="1855.36" y2="295.26" xlink:href="#Dégradé_sans_nom_81"/>
    <linearGradient id="Dégradé_sans_nom_81-4" data-name="Dégradé sans nom 81" x1="1878.72" y1="279.79" x2="1889.98" y2="299.29" xlink:href="#Dégradé_sans_nom_81"/>
    <linearGradient id="Dégradé_sans_nom_81-5" data-name="Dégradé sans nom 81" x1="1916.18" y1="274.14" x2="1930.07" y2="298.2" xlink:href="#Dégradé_sans_nom_81"/>
    <linearGradient id="Dégradé_sans_nom_81-6" data-name="Dégradé sans nom 81" x1="1948.95" y1="277.72" x2="1958.45" y2="294.17" xlink:href="#Dégradé_sans_nom_81"/>
    <linearGradient id="Dégradé_sans_nom_81-7" data-name="Dégradé sans nom 81" x1="1975.51" y1="274.77" x2="1988.44" y2="297.15" xlink:href="#Dégradé_sans_nom_81"/>
    <linearGradient id="Dégradé_sans_nom_81-8" data-name="Dégradé sans nom 81" x1="2013.62" y1="276.62" x2="2024.38" y2="295.27" xlink:href="#Dégradé_sans_nom_81"/>
    <linearGradient id="Dégradé_sans_nom_81-9" data-name="Dégradé sans nom 81" x1="2073.34" y1="277.07" x2="2085.83" y2="298.7" xlink:href="#Dégradé_sans_nom_81"/>
    <linearGradient id="Dégradé_sans_nom_81-10" data-name="Dégradé sans nom 81" x1="2130.81" y1="275.76" x2="2140.31" y2="292.21" xlink:href="#Dégradé_sans_nom_81"/>
    <linearGradient id="Dégradé_sans_nom_81-11" data-name="Dégradé sans nom 81" x1="2162.42" y1="275.7" x2="2174.25" y2="296.19" xlink:href="#Dégradé_sans_nom_81"/>
    <linearGradient id="Dégradé_sans_nom_81-12" data-name="Dégradé sans nom 81" x1="2192.17" y1="275.76" x2="2204.59" y2="297.27" xlink:href="#Dégradé_sans_nom_81"/>
    <linearGradient id="Dégradé_sans_nom_81-13" data-name="Dégradé sans nom 81" x1="2224.32" y1="275.65" x2="2233.81" y2="292.1" xlink:href="#Dégradé_sans_nom_81"/>
    <linearGradient id="Dégradé_sans_nom_81-14" data-name="Dégradé sans nom 81" x1="2258.4" y1="276.63" x2="2269.19" y2="295.32" xlink:href="#Dégradé_sans_nom_81"/>
    <linearGradient id="Dégradé_sans_nom_81-15" data-name="Dégradé sans nom 81" x1="2292.55" y1="275.76" x2="2304.97" y2="297.27" xlink:href="#Dégradé_sans_nom_81"/>
    <linearGradient id="Dégradé_sans_nom_81-16" data-name="Dégradé sans nom 81" x1="2328.1" y1="274.14" x2="2342" y2="298.2" xlink:href="#Dégradé_sans_nom_81"/>
    <linearGradient id="Dégradé_sans_nom_81-17" data-name="Dégradé sans nom 81" x1="2364.36" y1="279.79" x2="2375.62" y2="299.29" xlink:href="#Dégradé_sans_nom_81"/>
    <linearGradient id="Dégradé_sans_nom_81-18" data-name="Dégradé sans nom 81" x1="2400" y1="274.77" x2="2412.92" y2="297.15" xlink:href="#Dégradé_sans_nom_81"/>
    <linearGradient id="Dégradé_sans_nom_81-19" data-name="Dégradé sans nom 81" x1="2438.08" y1="276.57" x2="2448.92" y2="295.34" xlink:href="#Dégradé_sans_nom_81"/>
    <linearGradient id="Dégradé_sans_nom_81-20" data-name="Dégradé sans nom 81" x1="2471.74" y1="275.7" x2="2483.58" y2="296.19" xlink:href="#Dégradé_sans_nom_81"/>
  </defs>
  <g id="Calque_1-2" data-name="Calque 1">
    <path class="cls-3" d="M60.17,0h177.07C237.24,130.94,130.94,237.24,0,237.24h0V60.17C0,26.96,26.96,0,60.17,0Z"/>
    <path class="cls-2" d="M50.07,277.78V70.81c0-16.72,13.55-30.27,30.27-30.27h206.97c0,131.03-106.22,237.24-237.24,237.24"/>
    <path class="cls-1" d="M50.07,218.76V85.33c0-24.74,20.06-44.8,44.8-44.8h133.43c0,98.43-79.8,178.23-178.23,178.23"/>
    <path class="cls-1" d="M50.07,144.41v-77.77c0-14.42,11.69-26.11,26.11-26.11h77.77c0,57.37-46.51,103.88-103.88,103.88"/>
    <path class="cls-17" d="M546.53,20.68v224.88h-54.78v-92.58h-85.21v92.58h-54.78V20.68h54.78v88.1h85.21V20.68s54.78,0,54.78,0ZM620.04,236.92c-13.99-7.47-24.99-18.15-32.99-32.04-8.01-13.88-12.01-30.11-12.01-48.69s4.05-34.54,12.17-48.53c8.11-13.99,19.22-24.72,33.32-32.2,14.1-7.47,29.9-11.21,47.41-11.21s33.32,3.74,47.41,11.21c14.09,7.48,25.2,18.21,33.32,32.2,8.11,13.99,12.17,30.17,12.17,48.53s-4.12,34.55-12.33,48.53c-8.22,13.99-19.44,24.72-33.64,32.2-14.21,7.48-30.06,11.21-47.57,11.21s-33.27-3.73-47.25-11.21ZM694.05,189.18c7.37-7.69,11.05-18.69,11.05-33s-3.58-25.31-10.73-33c-7.16-7.69-15.97-11.53-26.43-11.53s-19.54,3.79-26.59,11.37c-7.05,7.58-10.57,18.64-10.57,33.16s3.47,25.31,10.41,33c6.94,7.69,15.64,11.53,26.11,11.53s19.38-3.84,26.75-11.53ZM821.06,240.12c-12.17-5.34-21.78-12.65-28.83-21.94-7.05-9.29-11-19.7-11.85-31.23h54.14c.64,6.2,3.52,11.21,8.65,15.06,5.12,3.84,11.42,5.77,18.9,5.77,6.83,0,12.12-1.33,15.86-4,3.73-2.67,5.61-6.14,5.61-10.41,0-5.13-2.67-8.91-8.01-11.37-5.34-2.45-13.99-5.18-25.95-8.17-12.81-2.99-23.5-6.14-32.03-9.45-8.54-3.31-15.91-8.54-22.1-15.7-6.2-7.15-9.29-16.82-9.29-28.99,0-10.25,2.83-19.59,8.49-28.03,5.66-8.43,13.99-15.11,24.99-20.02,11-4.91,24.08-7.37,39.24-7.37,22.42,0,40.09,5.56,53.02,16.66,12.92,11.11,20.34,25.84,22.26,44.21h-50.62c-.86-6.19-3.58-11.1-8.17-14.74-4.59-3.63-10.63-5.45-18.1-5.45-6.41,0-11.32,1.23-14.74,3.68-3.42,2.46-5.12,5.82-5.12,10.09,0,5.13,2.72,8.97,8.17,11.53,5.45,2.56,13.93,5.13,25.47,7.69,13.24,3.42,24.03,6.78,32.35,10.09,8.33,3.31,15.64,8.65,21.95,16.02,6.3,7.37,9.56,17.25,9.77,29.63,0,10.47-2.94,19.81-8.81,28.03-5.88,8.22-14.31,14.69-25.31,19.38-11,4.69-23.76,7.05-38.28,7.05-15.59,0-29.47-2.67-41.65-8.01ZM1068.37,199.11v46.45h-27.87c-19.86,0-35.35-4.86-46.45-14.58-11.11-9.72-16.66-25.57-16.66-47.57v-71.12h-21.78v-45.49h21.78c0-24.06,19.51-43.57,43.57-43.57h11.21s0,43.57,0,43.57h35.88v45.49h-35.88v71.76c0,5.34,1.28,9.18,3.84,11.53,2.56,2.35,6.83,3.52,12.81,3.52h19.54ZM1266.34,169.32h-123.98c.85,11.11,4.43,19.6,10.73,25.47,6.3,5.88,14.04,8.81,23.23,8.81,13.67,0,23.17-5.77,28.51-17.3h58.3c-2.99,11.75-8.39,22.32-16.18,31.71-7.8,9.4-17.57,16.77-29.31,22.1-11.75,5.34-24.88,8.01-39.4,8.01-17.51,0-33.11-3.73-46.77-11.21-13.67-7.47-24.35-18.15-32.03-32.04-7.69-13.88-11.53-30.11-11.53-48.69s3.79-34.81,11.37-48.69c7.58-13.88,18.21-24.56,31.87-32.04,13.67-7.47,29.36-11.21,47.09-11.21s32.68,3.63,46.13,10.89c13.45,7.26,23.97,17.62,31.55,31.07,7.58,13.45,11.37,29.15,11.37,47.09,0,5.13-.32,10.47-.96,16.02ZM1211.24,138.89c0-9.4-3.2-16.87-9.61-22.42-6.41-5.55-14.42-8.33-24.03-8.33s-16.93,2.67-23.22,8.01c-6.3,5.34-10.2,12.92-11.69,22.74h68.55ZM1295.65,107.49c6.94-13.88,16.39-24.56,28.35-32.04,11.96-7.47,25.31-11.21,40.04-11.21,11.74,0,22.47,2.46,32.19,7.37,9.72,4.92,17.35,11.53,22.91,19.86v-28.19c0-30.25,24.53-54.78,54.78-54.78h0v237.06h-54.78v-25.63c-5.13,8.54-12.44,15.38-21.94,20.5-9.51,5.13-20.56,7.69-33.16,7.69-14.74,0-28.09-3.79-40.04-11.37-11.96-7.58-21.41-18.37-28.35-32.35-6.94-13.99-10.41-30.16-10.41-48.53s3.47-34.49,10.41-48.37ZM1407.77,123.83c-7.58-7.9-16.82-11.85-27.71-11.85s-20.13,3.9-27.71,11.69c-7.58,7.8-11.37,18.53-11.37,32.19s3.79,24.51,11.37,32.52c7.58,8.01,16.82,12.01,27.71,12.01s20.13-3.95,27.71-11.85c7.58-7.9,11.37-18.69,11.37-32.35s-3.79-24.45-11.37-32.36ZM1662.93,91.8c-4.06-7.47-9.88-13.18-17.46-17.14-7.58-3.95-16.5-5.93-26.75-5.93-17.73,0-31.93,5.82-42.61,17.46-10.68,11.64-16.02,27.18-16.02,46.61,0,20.72,5.61,36.9,16.82,48.53,11.21,11.64,26.64,17.46,46.29,17.46,13.45,0,24.83-3.41,34.12-10.25,9.29-6.83,16.07-16.66,20.34-29.47h-69.51c0-22.29,18.07-40.36,40.36-40.36h78.81v31.07c0,20.98-7.06,41.42-20.37,57.63-.1.12-.19.24-.29.35-9.72,11.75-22.05,21.25-37,28.51-14.95,7.26-31.83,10.89-50.62,10.89-22.21,0-42.02-4.86-59.43-14.58-17.41-9.72-30.97-23.22-40.68-40.52-9.72-17.3-14.58-37.05-14.58-59.26s4.86-42.02,14.58-59.42c9.72-17.4,23.22-30.96,40.52-40.68,17.3-9.72,37.05-14.58,59.26-14.58,26.91,0,49.6,6.52,68.08,19.54,18.47,13.03,30.7,31.07,36.68,54.14h-60.55ZM1757.27,107.49c6.94-13.88,16.39-24.56,28.35-32.04,11.96-7.47,25.31-11.21,40.04-11.21,12.6,0,23.65,2.56,33.16,7.69,9.5,5.13,16.82,11.85,21.94,20.18v-25.31h54.78v178.75h-54.78v-25.31c-5.34,8.33-12.76,15.06-22.26,20.18-9.51,5.13-20.56,7.69-33.16,7.69-14.53,0-27.77-3.79-39.72-11.37-11.96-7.58-21.41-18.37-28.35-32.35-6.94-13.99-10.41-30.16-10.41-48.53s3.47-34.49,10.41-48.37ZM1869.39,123.83c-7.58-7.9-16.82-11.85-27.71-11.85s-20.13,3.9-27.71,11.69c-7.58,7.8-11.37,18.53-11.37,32.19s3.79,24.51,11.37,32.52c7.58,8.01,16.82,12.01,27.71,12.01s20.13-3.95,27.71-11.85c7.58-7.9,11.37-18.69,11.37-32.35s-3.79-24.45-11.37-32.36ZM2256.36,85.07c13.13,13.45,19.7,32.14,19.7,56.06v49.97c0,30.08-24.38,54.46-54.46,54.46h0v-97.07c0-11.53-3.04-20.45-9.13-26.75-6.09-6.3-14.47-9.45-25.15-9.45s-19.06,3.15-25.15,9.45c-6.09,6.3-9.13,15.22-9.13,26.75v42.61c0,30.08-24.38,54.46-54.46,54.46h0v-97.07c0-11.53-3.04-20.45-9.13-26.75-6.09-6.3-14.47-9.45-25.15-9.45s-19.06,3.15-25.15,9.45c-6.09,6.3-9.13,15.22-9.13,26.75v42.29c0,30.25-24.53,54.78-54.78,54.78h0V66.81h54.78v22.42c5.55-7.47,12.81-13.4,21.78-17.78,8.97-4.37,19.11-6.57,30.43-6.57,13.45,0,25.47,2.88,36.04,8.65,10.57,5.77,18.84,13.99,24.83,24.67,6.19-9.82,14.63-17.83,25.31-24.03,10.68-6.19,22.31-9.29,34.92-9.29,22.21,0,39.88,6.73,53.02,20.18ZM2482.05,169.32h-123.98c.85,11.11,4.43,19.6,10.73,25.47,6.3,5.88,14.04,8.81,23.23,8.81,13.67,0,23.17-5.77,28.51-17.3h58.3c-2.99,11.75-8.39,22.32-16.18,31.71-7.8,9.4-17.57,16.77-29.31,22.1-11.75,5.34-24.88,8.01-39.4,8.01-17.51,0-33.11-3.73-46.77-11.21-13.67-7.47-24.35-18.15-32.03-32.04-7.69-13.88-11.53-30.11-11.53-48.69s3.79-34.81,11.37-48.69c7.58-13.88,18.21-24.56,31.87-32.04,13.67-7.47,29.36-11.21,47.09-11.21s32.68,3.63,46.13,10.89c13.45,7.26,23.97,17.62,31.55,31.07,7.58,13.45,11.37,29.15,11.37,47.09,0,5.13-.32,10.47-.96,16.02ZM2426.95,138.89c0-9.4-3.2-16.87-9.61-22.42-6.41-5.55-14.42-8.33-24.03-8.33s-16.93,2.67-23.22,8.01c-6.3,5.34-10.2,12.92-11.69,22.74h68.55Z"/>
    <g>
      <path class="cls-15" d="M1857.92,281.61c-.6-1.59-1.6-2.85-3-3.8-1.4-.94-3.05-1.42-4.96-1.42-1.67,0-3.17.39-4.52,1.18-1.35.78-2.41,1.9-3.19,3.34-.78,1.45-1.17,3.13-1.17,5.06s.39,3.62,1.17,5.06c.78,1.45,1.85,2.56,3.19,3.33,1.35.77,2.85,1.16,4.52,1.16s3.06-.36,4.37-1.08c1.31-.72,2.35-1.75,3.13-3.09.78-1.34,1.21-2.9,1.3-4.68h-9.43v-1.14h10.81v.9c-.06,1.97-.53,3.74-1.42,5.3-.88,1.57-2.09,2.79-3.62,3.68-1.53.88-3.24,1.33-5.15,1.33s-3.71-.46-5.27-1.37c-1.57-.91-2.79-2.19-3.67-3.83-.88-1.64-1.33-3.49-1.33-5.56s.44-3.95,1.33-5.59c.88-1.64,2.11-2.91,3.67-3.83,1.57-.91,3.32-1.37,5.27-1.37,2.27,0,4.23.57,5.89,1.7,1.66,1.13,2.87,2.71,3.63,4.71h-1.57Z"/>
      <path class="cls-16" d="M1891.3,291.09h-10.03l-2.02,5.42h-1.48l7.77-20.67h1.51l7.74,20.67h-1.48l-2.02-5.42ZM1890.88,289.95l-4.58-12.32-4.61,12.32h9.19Z"/>
      <path class="cls-20" d="M1932.99,275.82v20.7h-1.35v-17.86l-7.95,17.86h-1.08l-7.98-17.86v17.86h-1.36v-20.7h1.45l8.43,18.92,8.44-18.92h1.42Z"/>
      <path class="cls-21" d="M1954.38,275.37v21.15h-1.36v-21.15h1.36Z"/>
      <path class="cls-18" d="M1989.53,296.52h-1.35l-12.41-18.92v18.92h-1.35v-21.12h1.35l12.41,18.86v-18.86h1.35v21.12Z"/>
      <path class="cls-19" d="M2026.95,281.61c-.6-1.59-1.6-2.85-3-3.8-1.4-.94-3.05-1.42-4.96-1.42-1.67,0-3.17.39-4.52,1.18-1.35.78-2.41,1.9-3.19,3.34-.78,1.45-1.18,3.13-1.18,5.06s.39,3.62,1.18,5.06c.78,1.45,1.85,2.56,3.19,3.33,1.35.77,2.85,1.16,4.52,1.16s3.06-.36,4.37-1.08c1.3-.72,2.35-1.75,3.13-3.09.78-1.34,1.21-2.9,1.3-4.68h-9.43v-1.14h10.81v.9c-.06,1.97-.53,3.74-1.42,5.3s-2.09,2.79-3.61,3.68c-1.53.88-3.24,1.33-5.15,1.33s-3.7-.46-5.27-1.37c-1.57-.91-2.79-2.19-3.68-3.83-.88-1.64-1.33-3.49-1.33-5.56s.44-3.95,1.33-5.59c.88-1.64,2.11-2.91,3.68-3.83,1.57-.91,3.32-1.37,5.27-1.37,2.27,0,4.23.57,5.89,1.7,1.66,1.13,2.87,2.71,3.63,4.71h-1.57Z"/>
      <path class="cls-22" d="M2085.63,292.42l3.98,4.1h-1.72l-3.04-3.1c-1.02,1.19-2.11,2.05-3.27,2.61-1.15.55-2.47.83-3.93.83-1.35,0-2.55-.27-3.61-.8-1.06-.53-1.89-1.28-2.49-2.23-.59-.95-.89-2.05-.89-3.3,0-1.51.43-2.81,1.28-3.9.85-1.09,2.09-1.95,3.72-2.58-.78-.82-1.35-1.59-1.7-2.3-.35-.71-.53-1.47-.53-2.27,0-1.28.46-2.33,1.37-3.13.91-.8,2.11-1.2,3.6-1.2.88,0,1.7.18,2.44.54.74.36,1.33.87,1.75,1.54.42.66.63,1.44.63,2.32h-1.35c0-1-.34-1.8-1.02-2.38-.68-.58-1.51-.87-2.47-.87-1.07,0-1.93.3-2.59.89-.66.59-.99,1.36-.99,2.3,0,.7.18,1.37.54,2,.36.63.93,1.35,1.72,2.15l7.68,7.89c.56-.8,1.19-1.79,1.9-2.95l1.69-2.92h1.45l-2.05,3.55c-.72,1.27-1.42,2.34-2.08,3.22ZM2081.07,294.89c.99-.5,1.95-1.31,2.88-2.41l-7.41-7.53-.09.03c-2.95,1.08-4.43,2.92-4.43,5.51,0,.98.24,1.87.72,2.65.48.78,1.15,1.4,2,1.84.85.44,1.82.66,2.91.66,1.28,0,2.43-.25,3.42-.75Z"/>
      <path class="cls-7" d="M2142.54,285.69c-1.17,1.03-2.89,1.55-5.18,1.55h-4.52v9.28h-1.35v-21.15h5.87c2.33,0,4.07.54,5.21,1.61,1.14,1.07,1.72,2.53,1.72,4.35s-.58,3.32-1.75,4.35ZM2142.93,281.33c0-1.55-.44-2.73-1.32-3.54-.88-.81-2.3-1.22-4.25-1.22h-4.52v9.46h4.52c3.71,0,5.57-1.57,5.57-4.7Z"/>
      <path class="cls-5" d="M2164.35,276.51v8.83h8.44v1.14h-8.44v8.89h9.34v1.14h-10.69v-21.15h10.69v1.14h-9.34Z"/>
      <path class="cls-11" d="M2204.26,296.52l-5.42-9.01h-4.64v9.01h-1.35v-21.15h5.81c2.35,0,4.11.55,5.29,1.66,1.18,1.1,1.76,2.57,1.76,4.4,0,1.63-.46,2.97-1.37,4.02-.91,1.05-2.24,1.7-3.99,1.94l5.54,9.13h-1.63ZM2194.2,286.36h4.52c1.87,0,3.26-.45,4.19-1.36.92-.9,1.39-2.1,1.39-3.59,0-3.23-1.88-4.85-5.63-4.85h-4.46v9.79Z"/>
      <path class="cls-6" d="M2235.71,275.37v1.14h-9.55v8.83h8.35v1.14h-8.35v10.03h-1.35v-21.15h10.9Z"/>
      <path class="cls-13" d="M2258.52,295.39c-1.57-.91-2.79-2.19-3.68-3.84-.88-1.65-1.32-3.5-1.32-5.57s.44-3.95,1.32-5.59c.88-1.64,2.11-2.91,3.68-3.83,1.57-.91,3.32-1.37,5.27-1.37s3.71.46,5.27,1.37c1.57.91,2.79,2.19,3.68,3.83.88,1.64,1.33,3.5,1.33,5.59s-.44,3.93-1.33,5.57c-.88,1.65-2.11,2.93-3.68,3.84-1.57.91-3.32,1.37-5.27,1.37s-3.71-.46-5.27-1.37ZM2268.31,294.38c1.35-.78,2.4-1.9,3.18-3.34.77-1.45,1.16-3.13,1.16-5.06s-.39-3.64-1.16-5.09c-.77-1.45-1.83-2.56-3.18-3.34-1.35-.78-2.85-1.18-4.52-1.18s-3.17.39-4.52,1.18c-1.35.78-2.41,1.9-3.19,3.34-.78,1.45-1.18,3.14-1.18,5.09s.39,3.62,1.18,5.06c.78,1.45,1.85,2.56,3.19,3.34,1.35.78,2.85,1.17,4.52,1.17s3.17-.39,4.52-1.17Z"/>
      <path class="cls-10" d="M2304.64,296.52l-5.42-9.01h-4.64v9.01h-1.35v-21.15h5.81c2.35,0,4.11.55,5.29,1.66,1.18,1.1,1.76,2.57,1.76,4.4,0,1.63-.46,2.97-1.37,4.02-.91,1.05-2.24,1.7-3.99,1.94l5.54,9.13h-1.63ZM2294.58,286.36h4.52c1.87,0,3.26-.45,4.19-1.36.92-.9,1.39-2.1,1.39-3.59,0-3.23-1.88-4.85-5.63-4.85h-4.46v9.79Z"/>
      <path class="cls-9" d="M2344.92,275.82v20.7h-1.36v-17.86l-7.95,17.86h-1.08l-7.98-17.86v17.86h-1.35v-20.7h1.45l8.44,18.92,8.43-18.92h1.42Z"/>
      <path class="cls-8" d="M2376.94,291.09h-10.03l-2.02,5.42h-1.48l7.77-20.67h1.51l7.74,20.67h-1.48l-2.02-5.42ZM2376.52,289.95l-4.58-12.32-4.61,12.32h9.19Z"/>
      <path class="cls-4" d="M2414.02,296.52h-1.35l-12.41-18.92v18.92h-1.35v-21.12h1.35l12.41,18.86v-18.86h1.35v21.12Z"/>
      <path class="cls-12" d="M2434.52,280.38c.87-1.64,2.08-2.92,3.62-3.84,1.54-.92,3.26-1.39,5.17-1.39,2.41,0,4.44.56,6.08,1.69,1.65,1.13,2.85,2.7,3.62,4.73h-1.57c-.6-1.61-1.6-2.88-3-3.81-1.4-.93-3.11-1.4-5.14-1.4-1.63,0-3.1.39-4.43,1.16-1.33.77-2.37,1.89-3.13,3.34-.76,1.46-1.14,3.16-1.14,5.11s.38,3.61,1.14,5.05c.76,1.44,1.81,2.55,3.13,3.33,1.32.78,2.8,1.17,4.43,1.17,2.03,0,3.74-.47,5.14-1.4,1.4-.93,2.39-2.2,3-3.81h1.57c-.76,2.03-1.97,3.61-3.62,4.73-1.65,1.13-3.68,1.69-6.08,1.69-1.91,0-3.63-.46-5.17-1.37-1.54-.91-2.74-2.19-3.62-3.83-.87-1.64-1.31-3.49-1.31-5.56s.44-3.95,1.31-5.59Z"/>
      <path class="cls-14" d="M2473.67,276.51v8.83h8.44v1.14h-8.44v8.89h9.34v1.14h-10.69v-21.15h10.69v1.14h-9.34Z"/>
    </g>
  </g>
</svg>