<?xml version="1.0" encoding="UTF-8"?>
<svg id="Calque_2" data-name="Calque 2" xmlns="http://www.w3.org/2000/svg" xmlns:xlink="http://www.w3.org/1999/xlink" viewBox="0 0 462.9 79.86">
  <defs>
    <style>
      .cls-1 {
        fill: url(#Dégradé_sans_nom_183);
      }
    </style>
    <linearGradient id="Dégradé_sans_nom_183" data-name="Dégradé sans nom 183" x1="0" y1="39.93" x2="462.9" y2="39.93" gradientUnits="userSpaceOnUse">
      <stop offset="0" stop-color="#193cba"/>
      <stop offset="1" stop-color="#2c7efe"/>
    </linearGradient>
  </defs>
  <g id="Calque_1-2" data-name="Calque 1">
    <path class="cls-1" d="M103.45,31.88c2.06.25,4.06.74,5.96,1.45s3.69,1.65,5.34,2.79,3.15,2.48,4.47,4.01,2.45,3.24,3.36,5.11c1.83,3.79,2.59,7.74,2.42,11.56s-1.24,7.51-3.06,10.78-4.39,6.12-7.55,8.26-6.89,3.58-11.04,4.01h-19.21s-19.21,0-19.21,0h-19.21s-19.21,0-19.21,0c-6.19-.65-11.34-3.15-15.23-6.74s-6.55-8.28-7.75-13.31-.95-10.4.95-15.35,5.45-9.5,10.85-12.88c.21-.13.5-.29.83-.46s.69-.35,1.04-.53.69-.37.98-.54.52-.34.65-.49c.17-.19.35-.51.53-.91s.38-.87.57-1.36.39-.99.58-1.45.38-.87.55-1.17c.88-1.52,1.99-2.88,3.28-4.04s2.74-2.14,4.31-2.9,3.24-1.29,4.95-1.58,3.48-.33,5.22-.1c.28.04.6.11.92.19s.65.17.98.24.65.12.95.12.58-.04.83-.16c.2-.1.41-.29.61-.53s.41-.53.61-.84.39-.63.57-.92.35-.56.5-.77c1.96-2.64,4.19-4.92,6.64-6.81s5.12-3.38,7.95-4.47,5.83-1.76,8.92-2.01,6.3-.05,9.55.59c3.59.71,6.97,2.11,10.02,4.03s5.79,4.37,8.07,7.18,4.14,5.99,5.42,9.37,2.02,6.97,2.08,10.61ZM70.17,3.92c-1.99.03-4,.32-5.98.84s-3.91,1.26-5.75,2.19-3.59,2.05-5.19,3.32-3.04,2.69-4.28,4.22c-.39.48-.75,1.03-1.11,1.59s-.72,1.14-1.11,1.68-.8,1.06-1.27,1.49-.99.79-1.59,1.01c-.57.21-1.05.33-1.5.37s-.85.02-1.25-.03-.8-.15-1.23-.25-.89-.2-1.43-.27c-1.33-.17-2.65-.17-3.95,0s-2.55.53-3.73,1.04-2.29,1.18-3.29,2.01-1.88,1.81-2.62,2.93c-.48.73-.81,1.43-1.08,2.11s-.51,1.33-.78,1.96-.59,1.23-1.05,1.8-1.06,1.12-1.89,1.63c-.43.26-.84.5-1.24.72s-.8.44-1.19.66-.79.45-1.18.7-.8.54-1.21.87c-3.93,3.11-6.4,6.98-7.6,11.06s-1.12,8.38.05,12.36,3.45,7.65,6.64,10.47,7.3,4.79,12.16,5.38h19.17s19.17,0,19.17,0h19.17s19.17,0,19.17,0c5.62-.76,9.94-3.3,12.92-6.77s4.6-7.85,4.81-12.3-.99-8.96-3.67-12.67-6.83-6.62-12.52-7.87c-.4-.09-.78-.14-1.16-.19s-.73-.09-1.08-.17-.69-.18-1.02-.35-.65-.41-.96-.75c-.35-.38-.58-.74-.74-1.1s-.24-.72-.28-1.08-.05-.74-.05-1.12-.01-.79-.06-1.22c-.42-3.77-1.5-7.31-3.11-10.5s-3.77-6.03-6.35-8.39-5.59-4.24-8.92-5.52-6.97-1.95-10.82-1.89ZM73.98,28.35c-.11.07-.22.15-.32.23s-.2.16-.3.24c-.9.73-1.77,1.55-2.63,2.42s-1.71,1.79-2.56,2.71-1.7,1.85-2.56,2.74-1.73,1.73-2.62,2.49c-.22.25-.38.52-.48.82s-.13.6-.11.91.1.61.22.9.3.55.52.79c.87.73,1.72,1.55,2.56,2.42s1.67,1.79,2.5,2.7,1.66,1.82,2.51,2.67,1.69,1.64,2.56,2.33c.57.45,1.16.69,1.7.75s1.05-.06,1.45-.32.7-.66.84-1.18.12-1.13-.12-1.83c-.75-.79-1.51-1.57-2.29-2.34s-1.55-1.53-2.32-2.3-1.54-1.54-2.28-2.34-1.47-1.6-2.17-2.44c.58-.71,1.2-1.39,1.85-2.05s1.32-1.31,2-1.95,1.36-1.28,2.02-1.93,1.31-1.31,1.92-2c.06-.07.17-.19.3-.33s.28-.32.43-.49.29-.34.4-.47.19-.24.21-.29c.18-.43.22-.87.16-1.27s-.22-.77-.46-1.08-.56-.55-.94-.7-.81-.2-1.27-.12c-.13.02-.25.06-.37.11s-.23.12-.34.19ZM50.44,41.95c-.04.27-.03.54.02.81s.15.51.29.73l2.27,2.31,2.27,2.31,2.27,2.31,2.27,2.31-.04.08-.04.08-.04.08-.04.08-2.25,2.28-2.25,2.28-2.25,2.28-2.25,2.28c-.23.66-.25,1.26-.11,1.76s.44.9.83,1.16.89.38,1.43.33,1.11-.28,1.67-.72c.86-.68,1.71-1.47,2.54-2.31s1.66-1.74,2.49-2.65,1.65-1.81,2.48-2.68,1.68-1.68,2.54-2.4c.23-.24.43-.5.57-.77s.24-.54.29-.83.03-.57-.04-.86-.21-.58-.41-.88l-2.72-2.71-2.72-2.71-2.72-2.71-2.72-2.71c-.2-.17-.44-.3-.69-.39s-.52-.12-.79-.11-.54.06-.79.15-.48.23-.68.41-.35.39-.47.63-.19.5-.23.77ZM108.99,30.02c-.11-.11-.24-.2-.39-.26s-.31-.1-.48-.1-.33.03-.48.1-.28.15-.39.26-.2.24-.26.39-.1.31-.1.48.03.33.1.48.15.28.26.39.24.2.39.26.31.1.48.1.33-.03.48-.1.28-.15.39-.26.2-.24.26-.39.1-.31.1-.48-.03-.33-.1-.48-.15-.28-.26-.39ZM126.61,52.8h1.13c-.04-.14-.09-.4-.15-.7s-.13-.67-.19-1.03-.13-.72-.19-1.02-.11-.55-.15-.68c-.55-2.05-1.32-3.98-2.28-5.78s-2.12-3.46-3.45-4.98-2.83-2.89-4.48-4.09-3.44-2.25-5.36-3.12c-.12-.05-.31-.12-.54-.2s-.49-.17-.75-.25-.5-.17-.7-.24-.34-.13-.39-.17c0,0-.01,0-.02-.01s0,0-.01-.01,0,0-.01-.01,0-.01-.01-.02v.92h0v.22c.11.01.28.07.49.15s.45.18.7.28.49.21.7.31.39.18.5.22c1.55.69,3.02,1.54,4.41,2.52s2.67,2.09,3.84,3.32,2.23,2.56,3.14,3.99,1.69,2.94,2.29,4.53c.09.25.24.66.4,1.17s.34,1.1.51,1.69.32,1.2.43,1.73.17.98.16,1.28ZM127.97,52.25c-.11-.11-.24-.2-.39-.26s-.31-.1-.48-.1-.33.03-.48.1-.28.15-.39.26-.2.24-.26.39-.1.31-.1.48.03.33.1.48.15.28.26.39.24.2.39.26.31.1.48.1.33-.03.48-.1.28-.15.39-.26.2-.24.26-.39.1-.31.1-.48-.03-.33-.1-.48-.15-.28-.26-.39ZM14.76,28.66c-.11-.11-.24-.2-.39-.26s-.31-.1-.48-.1-.33.03-.48.1-.28.15-.39.26-.2.24-.26.39-.1.31-.1.48.03.33.1.48.15.28.26.39.24.2.39.26.31.1.48.1.33-.03.48-.1.28-.15.39-.26.2-.24.26-.39.1-.31.1-.48-.03-.33-.1-.48-.15-.28-.26-.39ZM3.34,64.79c-.11-.11-.24-.2-.39-.26s-.31-.1-.48-.1-.33.03-.48.1-.28.15-.39.26-.2.24-.26.39-.1.31-.1.48.03.33.1.48.15.28.26.39.24.2.39.26.31.1.48.1.33-.03.48-.1.28-.15.39-.26.2-.24.26-.39.1-.31.1-.48-.03-.33-.1-.48-.15-.28-.26-.39ZM13.47,29.23c-.08.1-.28.26-.55.46s-.6.43-.94.67-.69.49-1.01.71-.58.43-.75.58c-2.35,2.09-4.29,4.37-5.83,6.79s-2.66,4.99-3.4,7.68S-.05,51.61,0,54.5s.52,5.85,1.36,8.87c.03.11.08.24.14.39s.13.32.2.48.14.34.21.5.11.31.15.43h.99v-.27c-.06-.12-.14-.32-.22-.55s-.17-.49-.25-.75-.16-.52-.23-.74-.12-.4-.15-.51c-.71-2.53-1.11-5.04-1.18-7.51s.16-4.89.7-7.24,1.4-4.62,2.56-6.79,2.63-4.23,4.4-6.16c.16-.17.45-.46.82-.82s.83-.78,1.3-1.21.98-.86,1.45-1.25.91-.72,1.27-.94v-1.3s0,.02-.01.02,0,.02-.01.02-.01.01-.02.02-.01.01-.02.02ZM1.39,63.46l.11.43.11.43.11.43.11.43h.21l-.12-.35-.12-.35-.12-.35-.12-.35-.05-.07-.05-.07-.05-.07-.05-.07ZM1.85,64.73l.03.11.03.11.03.11.03.11h.2l-.09-.27-.09-.27-.09-.27-.09-.27v.16s.03.16.03.16v.16s.03.16.03.16ZM2.86,64.88l-.03.14-.03.14h.22s0-.02,0-.02h0s0-.02,0-.02l-.03-.14-.03-.14-.03-.14-.03-.14-.03.14-.03.14ZM145.8,21.33h6.18c.33,0,.64.14.86.36s.36.52.36.86v34.77c0,.33-.14.64-.36.86s-.52.36-.86.36h-6.18c-.33,0-.64-.14-.86-.36s-.36-.52-.36-.86V22.55c0-.33.14-.64.36-.86s.52-.36.86-.36ZM196.13,22.55v34.77c0,.33-.14.64-.36.86s-.52.36-.86.36h-5.28c-.18,0-.36-.04-.52-.12s-.3-.19-.42-.33l-8.02-9.76-8.02-9.76c-.36-.44-.9-.53-1.35-.37s-.8.57-.8,1.14v17.98c0,.33-.14.64-.36.86s-.52.36-.86.36h-6.08c-.33,0-.64-.14-.86-.36s-.36-.52-.36-.86V22.55c0-.33.14-.64.36-.86s.52-.36.86-.36h5.33c.18,0,.36.04.52.12s.3.19.42.33l7.99,9.76,7.99,9.76c.36.44.9.53,1.35.37s.8-.57.8-1.14v-17.97c0-.33.14-.64.36-.86s.52-.36.86-.36h6.08c.33,0,.64.14.86.36s.36.52.36.86ZM213.55,29.45v7.4c0,.33.14.64.36.86s.52.36.86.36h14.79c.33,0,.64.14.86.36s.36.52.36.86v4.48c0,.33-.14.64-.36.86s-.52.36-.86.36h-14.79c-.33,0-.64.14-.86.36s-.36.52-.36.86v11.12c0,.33-.14.64-.36.86s-.52.36-.86.36h-6.18c-.33,0-.64-.14-.86-.36s-.36-.52-.36-.86V22.55c0-.33.14-.64.36-.86s.52-.36.86-.36h25.68c.33,0,.64.14.86.36s.36.52.36.86v4.48c0,.33-.14.64-.36.86s-.52.36-.86.36h-17.07c-.33,0-.64.14-.86.36s-.36.52-.36.86ZM263.23,58.53c-.2,0-.39-.05-.56-.14s-.32-.22-.43-.38l-3.41-4.92-3.41-4.92h-6.7c-.33,0-.64.14-.86.36s-.36.52-.36.86v7.94c0,.33-.14.64-.36.86s-.52.36-.86.36h-6.18c-.33,0-.64-.14-.86-.36s-.36-.52-.36-.86V22.55c0-.33.14-.64.36-.86s.52-.36.86-.36h14.89c4.97,0,9.01,1.29,11.8,3.62s4.35,5.71,4.35,9.88c0,2.54-.58,4.78-1.68,6.65s-2.7,3.39-4.74,4.49c-.32.17-.53.46-.61.79s-.03.68.18.97l3.1,4.44,3.1,4.44c.28.4.28.88.08,1.25s-.59.65-1.08.65h-6.28ZM254.52,28.35h-5.8c-.33,0-.64.14-.86.36s-.36.52-.36.86v10.54c0,.33.14.64.36.86s.52.36.86.36h5.8c2.63,0,4.61-.61,5.93-1.73s1.99-2.74,1.99-4.76-.66-3.67-1.99-4.78-3.3-1.71-5.93-1.71ZM301.63,50.56h-15.65c-.25,0-.48.07-.67.2s-.35.32-.45.54l-1.34,3.24-1.34,3.24c-.09.23-.25.41-.45.54s-.43.2-.67.2h-6.14c-.44,0-.81-.23-1.02-.55s-.27-.75-.09-1.15l7.75-17.38,7.75-17.38c.1-.22.25-.4.45-.52s.42-.2.66-.2h6.93c.24,0,.47.07.66.2s.35.3.45.52l7.77,17.38,7.77,17.38c.18.4.12.83-.09,1.15s-.58.55-1.02.55h-6.35c-.25,0-.48-.07-.67-.2s-.35-.32-.45-.54l-1.34-3.24-1.34-3.24c-.09-.23-.25-.41-.45-.54s-.43-.2-.67-.2ZM299.04,42.34l-2.04-4.93-2.04-4.93c-.21-.5-.66-.75-1.12-.75s-.91.25-1.12.75l-2.04,4.93-2.04,4.93c-.17.4-.1.82.11,1.14s.58.54,1.01.54h8.17c.43,0,.79-.22,1.01-.54s.28-.74.11-1.14ZM372.33,22.92l-5.69,17.38-5.69,17.38c-.08.25-.24.46-.44.6s-.45.23-.71.23h-7.49c-.26,0-.51-.08-.71-.23s-.36-.36-.44-.61l-3.39-10.43-3.39-10.43c-.18-.56-.66-.84-1.15-.84s-.97.27-1.16.83l-3.5,10.44-3.5,10.44c-.08.25-.24.45-.44.6s-.45.23-.71.23h-7.44c-.26,0-.51-.08-.71-.23s-.36-.35-.44-.6l-5.71-17.38-5.71-17.38c-.13-.39-.05-.79.17-1.09s.57-.5.98-.5h6.37c.26,0,.51.09.71.23s.36.36.44.61l3.5,10.89,3.5,10.89c.18.56.66.84,1.15.84s.97-.27,1.16-.83l3.66-10.91,3.66-10.91c.08-.25.24-.45.44-.6s.45-.23.71-.23h6.21c.26,0,.51.08.71.23s.36.36.44.61l3.54,10.98,3.54,10.98c.18.56.67.84,1.15.84s.97-.28,1.16-.83l3.61-10.99,3.61-10.99c.08-.25.24-.46.44-.6s.45-.23.71-.23h5.68c.41,0,.76.2.98.5s.3.7.17,1.09ZM378.84,21.33h6.18c.33,0,.64.14.86.36s.36.52.36.86v34.77c0,.33-.14.64-.36.86s-.52.36-.86.36h-6.18c-.33,0-.64-.14-.86-.36s-.36-.52-.36-.86V22.55c0-.33.14-.64.36-.86s.52-.36.86-.36ZM419.39,58.53c-.2,0-.39-.05-.56-.14s-.32-.22-.43-.38l-3.41-4.92-3.41-4.92h-6.7c-.33,0-.64.14-.86.36s-.36.52-.36.86v7.94c0,.33-.14.64-.36.86s-.52.36-.86.36h-6.18c-.33,0-.64-.14-.86-.36s-.36-.52-.36-.86V22.55c0-.33.14-.64.36-.86s.52-.36.86-.36h14.89c4.97,0,9.01,1.29,11.8,3.62s4.35,5.71,4.35,9.88c0,2.54-.58,4.78-1.68,6.65s-2.7,3.39-4.74,4.49c-.32.17-.53.46-.61.79s-.03.68.18.97l3.1,4.44,3.1,4.44c.28.4.28.88.08,1.25s-.59.65-1.08.65h-6.28ZM410.68,28.35h-5.8c-.33,0-.64.14-.86.36s-.36.52-.36.86v10.54c0,.33.14.64.36.86s.52.36.86.36h5.8c2.63,0,4.61-.61,5.93-1.73s1.99-2.74,1.99-4.76-.66-3.67-1.99-4.78-3.3-1.71-5.93-1.71ZM462.9,52.83v4.48c0,.33-.14.64-.36.86s-.52.36-.86.36h-26.37c-.33,0-.64-.14-.86-.36s-.36-.52-.36-.86V22.55c0-.33.14-.64.36-.86s.52-.36.86-.36h25.68c.33,0,.64.14.86.36s.36.52.36.86v4.48c0,.33-.14.64-.36.86s-.52.36-.86.36h-17.13c-.33,0-.64.14-.86.36s-.36.52-.36.86v5.65c0,.33.14.64.36.86s.52.36.86.36h14.84c.33,0,.64.14.86.36s.36.52.36.86v4.27c0,.33-.14.64-.36.86s-.52.36-.86.36h-14.84c-.33,0-.64.14-.86.36s-.36.52-.36.86v6.18c0,.33.14.64.36.86s.52.36.86.36h17.82c.33,0,.64.14.86.36s.36.52.36.86Z"/>
  </g>
</svg>